<svg viewBox="0 0 242 188" fill="none" xmlns="http://www.w3.org/2000/svg">
<path d="M124.469 96.4329C130.346 91.3252 135.06 85.0079 138.291 77.9097C141.522 70.8114 143.195 63.0984 143.194 55.2941C143.194 40.6292 137.392 26.5649 127.063 16.1953C116.735 5.82562 102.726 1.97855e-06 88.1197 1.97855e-06C73.5129 1.97855e-06 59.5044 5.82562 49.1759 16.1953C38.8474 26.5649 33.0449 40.6292 33.0449 55.2941C33.0448 63.0984 34.717 70.8114 37.9479 77.9097C41.1789 85.0079 45.893 91.3252 51.7703 96.4329C36.3509 103.443 23.2687 114.763 14.0879 129.04C4.90711 143.317 0.0162124 159.947 0 176.941C0 179.874 1.1605 182.687 3.22621 184.761C5.29191 186.835 8.09361 188 11.015 188C13.9363 188 16.738 186.835 18.8037 184.761C20.8694 182.687 22.0299 179.874 22.0299 176.941C22.0299 159.343 28.9929 142.466 41.3872 130.023C53.7814 117.579 70.5916 110.588 88.1197 110.588C105.648 110.588 122.458 117.579 134.852 130.023C147.246 142.466 154.209 159.343 154.209 176.941C154.209 179.874 155.37 182.687 157.436 184.761C159.501 186.835 162.303 188 165.224 188C168.146 188 170.947 186.835 173.013 184.761C175.079 182.687 176.239 179.874 176.239 176.941C176.223 159.947 171.332 143.317 162.151 129.04C152.971 114.763 139.888 103.443 124.469 96.4329V96.4329ZM88.1197 88.4706C81.584 88.4706 75.1951 86.5248 69.7609 82.8793C64.3267 79.2339 60.0913 74.0524 57.5902 67.9902C55.0891 61.928 54.4347 55.2573 55.7097 48.8217C56.9848 42.3861 60.132 36.4746 64.7534 31.8348C69.3748 27.195 75.2628 24.0353 81.6729 22.7551C88.083 21.475 94.7272 22.132 100.765 24.6431C106.804 27.1541 111.964 31.4064 115.595 36.8623C119.226 42.3181 121.165 48.7324 121.165 55.2941C121.165 64.0931 117.683 72.5316 111.486 78.7534C105.289 84.9752 96.8837 88.4706 88.1197 88.4706ZM195.405 92.0094C202.455 84.0397 207.059 74.1943 208.665 63.6583C210.271 53.1224 208.81 42.3451 204.457 32.6235C200.104 22.902 193.046 14.6507 184.131 8.86279C175.217 3.07491 164.826 -0.00284875 154.209 1.97855e-06C151.288 1.97855e-06 148.486 1.16512 146.421 3.23906C144.355 5.31299 143.194 8.12584 143.194 11.0588C143.194 13.9918 144.355 16.8047 146.421 18.8786C148.486 20.9525 151.288 22.1176 154.209 22.1176C162.973 22.1176 171.379 25.613 177.576 31.8348C183.773 38.0566 187.254 46.4952 187.254 55.2941C187.239 61.1027 185.704 66.8053 182.805 71.8317C179.905 76.8582 175.742 81.0322 170.732 83.9365C169.099 84.8822 167.735 86.233 166.77 87.8595C165.806 89.486 165.274 91.3337 165.224 93.2259C165.178 95.1033 165.609 96.9615 166.476 98.6254C167.344 100.289 168.619 101.704 170.181 102.736L174.477 105.612L175.909 106.386C189.186 112.708 200.388 122.709 208.193 135.209C215.999 147.709 220.085 162.188 219.969 176.941C219.969 179.874 221.129 182.687 223.195 184.761C225.261 186.835 228.062 188 230.984 188C233.905 188 236.707 186.835 238.772 184.761C240.838 182.687 241.999 179.874 241.999 176.941C242.089 159.971 237.855 143.259 229.7 128.394C221.545 113.528 209.74 101.004 195.405 92.0094V92.0094Z" fill="black"/>
</svg>
