<svg  viewBox="0 0 161 161" fill="none" xmlns="http://www.w3.org/2000/svg">
<path d="M102.396 54.6595L67.8615 89.2745L54.579 75.992C53.8574 75.1493 52.9693 74.4649 51.9706 73.9817C50.9719 73.4985 49.884 73.227 48.7754 73.1842C47.6668 73.1413 46.5612 73.3281 45.5282 73.7328C44.4952 74.1376 43.557 74.7514 42.7725 75.5359C41.988 76.3204 41.3741 77.2587 40.9694 78.2917C40.5647 79.3247 40.3779 80.4302 40.4207 81.5389C40.4635 82.6475 40.735 83.7353 41.2182 84.734C41.7014 85.7328 42.3858 86.6208 43.2285 87.3425L62.146 106.34C62.8982 107.087 63.7903 107.677 64.7711 108.077C65.7519 108.478 66.8021 108.681 67.8615 108.675C69.9734 108.666 71.9971 107.828 73.4965 106.34L113.747 66.0905C114.501 65.3421 115.1 64.4518 115.509 63.4708C115.917 62.4899 116.128 61.4377 116.128 60.375C116.128 59.3123 115.917 58.2601 115.509 57.2791C115.1 56.2982 114.501 55.4078 113.747 54.6595C112.238 53.1602 110.198 52.3186 108.071 52.3186C105.945 52.3186 103.904 53.1602 102.396 54.6595ZM80.5 0C64.5786 0 49.0148 4.72124 35.7766 13.5667C22.5385 22.4121 12.2206 34.9845 6.12773 49.694C0.0348794 64.4034 -1.55929 80.5893 1.54682 96.2047C4.65293 111.82 12.3198 126.164 23.5779 137.422C34.8361 148.68 49.1798 156.347 64.7953 159.453C80.4107 162.559 96.5966 160.965 111.306 154.872C126.015 148.779 138.588 138.462 147.433 125.223C156.279 111.985 161 96.4214 161 80.5C161 69.9286 158.918 59.4607 154.872 49.694C150.827 39.9273 144.897 31.053 137.422 23.5779C129.947 16.1028 121.073 10.1732 111.306 6.1277C101.539 2.08219 91.0714 0 80.5 0V0ZM80.5 144.9C67.7629 144.9 55.3118 141.123 44.7213 134.047C34.1308 126.97 25.8765 116.912 21.0022 105.145C16.1279 93.3772 14.8526 80.4285 17.3375 67.9362C19.8224 55.4438 25.9559 43.9688 34.9624 34.9623C43.9689 25.9558 55.4438 19.8223 67.9362 17.3374C80.4286 14.8525 93.3773 16.1279 105.145 21.0022C116.912 25.8764 126.97 34.1307 134.047 44.7213C141.123 55.3118 144.9 67.7629 144.9 80.5C144.9 97.5799 138.115 113.96 126.038 126.038C113.96 138.115 97.58 144.9 80.5 144.9V144.9Z" fill="black"/>
</svg>
