<svg viewBox="0 0 174 218" fill="none" xmlns="http://www.w3.org/2000/svg">
<path d="M87 0C63.9262 0 41.7974 9.18709 25.4817 25.5402C9.16605 41.8933 0 64.0729 0 87.1997C0 146.06 76.6688 212.549 79.9313 215.383C81.9011 217.072 84.4079 218 87 218C89.5921 218 92.0989 217.072 94.0687 215.383C97.875 212.549 174 146.06 174 87.1997C174 64.0729 164.834 41.8933 148.518 25.5402C132.203 9.18709 110.074 0 87 0V0ZM87 192.384C63.8362 170.584 21.75 123.606 21.75 87.1997C21.75 69.8546 28.6245 53.2199 40.8613 40.9551C53.098 28.6902 69.6946 21.7999 87 21.7999C104.305 21.7999 120.902 28.6902 133.139 40.9551C145.375 53.2199 152.25 69.8546 152.25 87.1997C152.25 123.606 110.164 170.693 87 192.384ZM87 43.5999C78.3965 43.5999 69.9862 46.1569 62.8327 50.9478C55.6792 55.7386 50.1036 62.5479 46.8112 70.5148C43.5188 78.4816 42.6574 87.2481 44.3358 95.7056C46.0143 104.163 50.1573 111.932 56.2409 118.029C62.3244 124.127 70.0754 128.28 78.5136 129.962C86.9517 131.644 95.6981 130.781 103.647 127.481C111.595 124.181 118.389 118.592 123.169 111.422C127.949 104.253 130.5 95.823 130.5 87.1997C130.5 75.6363 125.917 64.5465 117.759 56.37C109.601 48.1934 98.5369 43.5999 87 43.5999ZM87 109C82.6983 109 78.4931 107.721 74.9163 105.326C71.3396 102.93 68.5518 99.5256 66.9056 95.5422C65.2594 91.5588 64.8287 87.1755 65.6679 82.9468C66.5071 78.718 68.5786 74.8336 71.6204 71.7848C74.6622 68.7361 78.5377 66.6598 82.7568 65.8187C86.9759 64.9775 91.3491 65.4092 95.3234 67.0592C99.2977 68.7092 102.695 71.5033 105.084 75.0883C107.474 78.6733 108.75 82.8881 108.75 87.1997C108.75 92.9814 106.458 98.5263 102.38 102.615C98.3007 106.703 92.7685 109 87 109Z" fill="black"/>
</svg>
