<svg viewBox="0 0 213 213" fill="none" xmlns="http://www.w3.org/2000/svg">
<path d="M186.376 21.3H154.426V5.325C154.426 2.38429 152.042 0 149.102 0C146.161 0 143.777 2.38429 143.777 5.325V21.3H69.2285V5.325C69.2285 2.38429 66.8443 0 63.9036 0C60.963 0 58.5788 2.38429 58.5788 5.325V21.3H26.6244C11.9264 21.3156 0.0155997 33.2266 0 47.925V186.375C0.0155997 201.073 11.9264 212.984 26.6244 213H186.376C201.074 212.986 212.986 201.074 213 186.375V47.925C212.986 33.226 201.074 21.3136 186.376 21.3ZM202.35 186.375C202.341 195.194 195.194 202.34 186.376 202.35H26.6244C17.8057 202.34 10.6595 195.194 10.6497 186.375V95.85H202.35V186.375ZM202.35 85.2H10.6497V47.925C10.6595 39.1061 17.8057 31.9597 26.6244 31.95H58.5788V47.925C58.5788 47.9269 58.5788 47.9289 58.5788 47.9315C58.5807 50.8703 60.9643 53.2519 63.9036 53.25C63.9056 53.25 63.9075 53.25 63.9101 53.25C66.8488 53.248 69.2305 50.8644 69.2285 47.925V31.95H143.777V47.925C143.777 47.9269 143.777 47.9289 143.777 47.9315C143.779 50.8703 146.162 53.2519 149.102 53.25C149.104 53.25 149.105 53.25 149.108 53.25C152.047 53.248 154.428 50.8644 154.426 47.925V31.95H186.376C195.194 31.9597 202.341 39.1061 202.35 47.925V85.2Z" fill="black"/>
</svg>
